<svg xmlns="http://www.w3.org/2000/svg" xml:space="preserve" width="2048" height="2048" style="shape-rendering:geometricPrecision;text-rendering:geometricPrecision;image-rendering:optimizeQuality;fill-rule:evenodd;clip-rule:evenodd"><defs><style>.fil0,.fil3{fill:#414141;fill-rule:nonzero}.fil3{fill:#6c6c6c}</style></defs><g id="Layer_x0020_1"><g id="_459941840"><path id="_459942752" class="fil0" d="M727.25 755.969v369.251h-15.218V755.969z"/><path id="_459942704" class="fil0" d="M1335.97 768.174v336.966h-15.22V768.174z"/><path id="_459942584" style="fill:#5f5f5f;fill-rule:nonzero" d="M1791.99 1200H256.008v-98.66H1791.99z"/><path id="_459942488" class="fil0" d="M919.999 900.418V1104h-16V900.418z"/><path id="_459942440" class="fil0" d="M1144 900.418V1104h-16V900.418z"/><path id="_459942296" class="fil0" d="M1712 857.805V1104h-16V857.805z"/><path id="_459942152" class="fil0" d="M351.999 882.638V1104h-16V882.638z"/><path id="_459942056" d="m1772.42 935.86 8.773-30.831c-79.038-30.886-229.945-215.017-265.969-289.703l-10.797-22.386-15.81 19.224c-84.625 102.884-324.186 299.648-464.608 299.648-170.567 0-345.723-213.288-479.087-315.905-75.185 90.795-169.866 266.828-278.097 309.122l8.774 30.831c103.07-38.646 216.416-201.393 265.304-297.634 145.676 108.258 298.877 305.34 482.98 305.34h.251c134.672 0 373.81-174.633 457.637-273.614l15.566-18.378 10.907 21.473c33.854 66.64 193.684 236.384 264.175 262.814z" style="fill:#616161"/><path id="_459941960" class="fil3" d="M1536.01 608.302V1456h-64V608.302L1504 592z"/><path id="_459941912" class="fil3" d="M576.005 608.302V1456h-64.001V608.302L544.001 592z"/></g><path style="fill:none" d="M0 0h2048v2048H0z"/></g></svg>